<svg xmlns="http://www.w3.org/2000/svg" version="1.1" xmlns:xlink="http://www.w3.org/1999/xlink" xmlns:svgjs="http://svgjs.dev/svgjs" width="1000" height="623" viewBox="0 0 1000 623"><g transform="matrix(1,0,0,1,-0.6060606060606233,0.2522267206477409)"><svg viewBox="0 0 396 247" data-background-color="#89939e" preserveAspectRatio="xMidYMid meet" height="623" width="1000" xmlns="http://www.w3.org/2000/svg" xmlns:xlink="http://www.w3.org/1999/xlink"><g id="tight-bounds" transform="matrix(1,0,0,1,0.2400000000000091,-0.09999999999999432)"><svg viewBox="0 0 395.52 247.2" height="247.2" width="395.52"><g><svg></svg></g><g><svg viewBox="0 0 395.52 247.2" height="247.2" width="395.52"><g transform="matrix(1,0,0,1,75.54432000000001,81.6247968083261)"><svg viewBox="0 0 244.43135999999996 83.95040638334778" height="83.95040638334778" width="244.43135999999996"><g><svg viewBox="0 0 244.43135999999996 83.95040638334778" height="83.95040638334778" width="244.43135999999996"><g><svg viewBox="0 0 244.43135999999996 83.95040638334778" height="83.95040638334778" width="244.43135999999996"><g><svg viewBox="0 0 244.43135999999996 83.95040638334778" height="83.95040638334778" width="244.43135999999996"><g id="textblocktransform"><svg viewBox="0 0 244.43135999999996 83.95040638334778" height="83.95040638334778" width="244.43135999999996" id="textblock"><g><svg viewBox="0 0 244.43135999999996 83.95040638334778" height="83.95040638334778" width="244.43135999999996"><g transform="matrix(1,0,0,1,0,0)"><svg width="244.43135999999996" viewBox="0.9 -38.9 115.28999999999999 39.6" height="83.95040638334778" data-palette-color="#ffffff"><path d="M26.25-14.85L31.05-8.2 33.2-8.2 33.2 0 20.95 0 15.8-9.6 14.6-9.6 14.6 0 0.9 0 0.9-8.2 3.1-8.2 3.1-30.7 0.9-30.7 0.9-38.9 14.6-38.9 14.6-18.6 15.8-18.6 22-27.8 32.55-27.8 32.55-19.6 30.5-19.6 26.25-14.85ZM49.7 0.7Q42.6 0.7 38.6-3.03 34.6-6.75 34.6-13.9L34.6-13.9Q34.6-21.05 38.6-24.78 42.6-28.5 49.7-28.5L49.7-28.5Q56.9-28.5 60.85-24.73 64.8-20.95 64.8-13.9L64.8-13.9Q64.8-6.75 60.8-3.03 56.8 0.7 49.7 0.7L49.7 0.7ZM49.7-8.2Q51.15-8.2 51.87-8.97 52.6-9.75 52.6-11.4L52.6-11.4 52.6-16.4Q52.6-18.05 51.87-18.82 51.15-19.6 49.7-19.6L49.7-19.6Q48.25-19.6 47.52-18.82 46.8-18.05 46.8-16.4L46.8-16.4 46.8-11.4Q46.8-9.75 47.52-8.97 48.25-8.2 49.7-8.2L49.7-8.2ZM91.75-14.85L96.55-8.2 98.7-8.2 98.7 0 86.45 0 81.3-9.6 80.09-9.6 80.09 0 66.4 0 66.4-8.2 68.59-8.2 68.59-30.7 66.4-30.7 66.4-38.9 80.09-38.9 80.09-18.6 81.3-18.6 87.5-27.8 98.05-27.8 98.05-19.6 96-19.6 91.75-14.85ZM112.89-30.55L102.69-30.55 102.69-38.9 112.89-38.9 112.89-30.55ZM116.19 0L100.29 0 100.29-8.2 102.49-8.2 102.49-19.6 100.29-19.6 100.29-27.8 113.99-27.8 113.99-8.2 116.19-8.2 116.19 0Z" opacity="1" transform="matrix(1,0,0,1,0,0)" fill="#ffffff" class="wordmark-text-0" data-fill-palette-color="primary" id="text-0"></path></svg></g></svg></g></svg></g></svg></g></svg></g></svg></g></svg></g><g><path d="M245.816 0c68.262 0 123.6 55.338 123.6 123.6 0 68.262-55.338 123.6-123.6 123.6-49.732 0-92.605-29.372-112.216-71.715h4.187c19.338 40.19 60.444 67.93 108.029 67.93 66.172 0 119.815-53.643 119.814-119.815 0-66.172-53.643-119.815-119.814-119.815-47.585 0-88.69 27.74-108.029 67.93h-4.187c19.611-42.343 62.483-71.715 112.216-71.715z" fill="#ffffff" stroke="transparent" data-fill-palette-color="tertiary"></path></g></svg></g><defs></defs></svg><rect width="395.52" height="247.2" fill="none" stroke="none" visibility="hidden"></rect></g></svg></g></svg>